<?xml version="1.0" encoding="UTF-8" standalone="no"?>
<svg width="848px" height="346px" viewBox="0 0 848 346" version="1.1" xmlns="http://www.w3.org/2000/svg" xmlns:xlink="http://www.w3.org/1999/xlink" xmlns:sketch="http://www.bohemiancoding.com/sketch/ns">
    <!-- Generator: Sketch 3.5.1 (25234) - http://www.bohemiancoding.com/sketch -->
    <title>Page 1</title>
    <desc>Created with Sketch.</desc>
    <defs></defs>
    <g id="Page-1" stroke="none" stroke-width="1" fill="none" fill-rule="evenodd" sketch:type="MSPage">
        <g sketch:type="MSLayerGroup">
            <path d="M0,346 L848,346 L848,0.501 L0,0.501 L0,346 Z" id="Fill-1" fill="#8A603C" sketch:type="MSShapeGroup"></path>
            <path d="M14.799,158.001 L835.965,158.001 L835.965,186.001 L14.799,186.001 L14.799,158.001 Z" id="Fill-2" fill="#C2986B" sketch:type="MSShapeGroup"></path>
            <path d="M14.882,346 L836.047,346 L836.047,318 L14.882,318 L14.882,346 Z" id="Fill-3" fill="#C2986B" sketch:type="MSShapeGroup"></path>
            <path d="M25,318.167 L34.25,318.167 L34.25,204.531 L25,204.531 L25,318.167 Z" id="Fill-4" fill="#1F3A49" sketch:type="MSShapeGroup"></path>
            <path d="M43.096,204.53 L34.25,204.53 L34.25,318.166 L43.096,318.166 L43.096,204.53 Z" id="Fill-5" fill="#344E5D" sketch:type="MSShapeGroup"></path>
            <path d="M43.096,280.771 L34.25,280.771 L34.25,300.803 L43.096,300.803 L43.096,280.771 Z" id="Fill-6" fill="#43B19C" sketch:type="MSShapeGroup"></path>
            <path d="M25,300.803 L34.25,300.803 L34.25,280.771 L25,280.771 L25,300.803 Z" id="Fill-7" fill="#2F9D88" sketch:type="MSShapeGroup"></path>
            <path d="M43.096,260.738 L34.25,260.738 L34.25,280.771 L43.096,280.771 L43.096,260.738 Z" id="Fill-8" fill="#EEC84D" sketch:type="MSShapeGroup"></path>
            <path d="M25,280.771 L34.25,280.771 L34.25,260.738 L25,260.738 L25,280.771 Z" id="Fill-9" fill="#DAB439" sketch:type="MSShapeGroup"></path>
            <path d="M25,260.738 L34.25,260.738 L34.25,240.705 L25,240.705 L25,260.738 Z" id="Fill-10" fill="#CD662A" sketch:type="MSShapeGroup"></path>
            <path d="M43.096,240.705 L34.25,240.705 L34.25,260.738 L43.096,260.738 L43.096,240.705 Z" id="Fill-11" fill="#E17A3E" sketch:type="MSShapeGroup"></path>
            <path d="M25,240.705 L34.25,240.705 L34.25,220.672 L25,220.672 L25,240.705 Z" id="Fill-12" fill="#CA3535" sketch:type="MSShapeGroup"></path>
            <path d="M43.096,220.672 L34.25,220.672 L34.25,240.705 L43.096,240.705 L43.096,220.672 Z" id="Fill-13" fill="#DE4949" sketch:type="MSShapeGroup"></path>
            <path d="M533.5,318.167 L542.667,318.167 L542.667,204.531 L533.5,204.531 L533.5,318.167 Z" id="Fill-14" fill="#1F3A49" sketch:type="MSShapeGroup"></path>
            <path d="M551.596,204.53 L542.667,204.53 L542.667,318.166 L551.596,318.166 L551.596,204.53 Z" id="Fill-15" fill="#344E5D" sketch:type="MSShapeGroup"></path>
            <path d="M533.5,300.803 L542.667,300.803 L542.667,280.771 L533.5,280.771 L533.5,300.803 Z" id="Fill-16" fill="#2F9D88" sketch:type="MSShapeGroup"></path>
            <path d="M551.596,280.771 L542.667,280.771 L542.667,300.803 L551.596,300.803 L551.596,280.771 Z" id="Fill-17" fill="#43B19C" sketch:type="MSShapeGroup"></path>
            <path d="M551.596,260.738 L542.667,260.738 L542.667,280.771 L551.596,280.771 L551.596,260.738 Z" id="Fill-18" fill="#EEC84D" sketch:type="MSShapeGroup"></path>
            <path d="M533.5,280.771 L542.667,280.771 L542.667,260.738 L533.5,260.738 L533.5,280.771 Z" id="Fill-19" fill="#DAB439" sketch:type="MSShapeGroup"></path>
            <path d="M533.5,260.738 L542.667,260.738 L542.667,240.705 L533.5,240.705 L533.5,260.738 Z" id="Fill-20" fill="#CD662A" sketch:type="MSShapeGroup"></path>
            <path d="M551.596,240.705 L542.667,240.705 L542.667,260.738 L551.596,260.738 L551.596,240.705 Z" id="Fill-21" fill="#E17A3E" sketch:type="MSShapeGroup"></path>
            <path d="M533.5,240.705 L542.667,240.705 L542.667,220.672 L533.5,220.672 L533.5,240.705 Z" id="Fill-22" fill="#CA3535" sketch:type="MSShapeGroup"></path>
            <path d="M551.596,220.672 L542.667,220.672 L542.667,240.705 L551.596,240.705 L551.596,220.672 Z" id="Fill-23" fill="#DE4949" sketch:type="MSShapeGroup"></path>
            <path d="M43.102,318.167 L54.25,318.167 L54.25,203.566 L43.102,203.566 L43.102,318.167 Z" id="Fill-24" fill="#CA3535" sketch:type="MSShapeGroup"></path>
            <path d="M64.598,203.565 L54.25,203.565 L54.25,318.166 L64.598,318.166 L64.598,203.565 Z" id="Fill-25" fill="#DE4949" sketch:type="MSShapeGroup"></path>
            <path d="M48.327,311.354 L54.25,311.354 L54.25,278.41 L48.327,278.41 L48.327,311.354 Z" id="Fill-26" fill="#CA3535" sketch:type="MSShapeGroup"></path>
            <path d="M57.936,278.41 L54.25,278.41 L54.25,311.354 L57.936,311.354 L57.936,278.41 Z" id="Fill-27" fill="#DE4949" sketch:type="MSShapeGroup"></path>
            <path d="M43.102,307.476 L54.25,307.476 L54.25,293.845 L43.102,293.845 L43.102,307.476 Z" id="Fill-28" fill="#2F9D88" sketch:type="MSShapeGroup"></path>
            <path d="M64.598,293.845 L54.25,293.845 L54.25,307.476 L64.598,307.476 L64.598,293.845 Z" id="Fill-29" fill="#43B19C" sketch:type="MSShapeGroup"></path>
            <path d="M43.102,295.271 L54.25,295.271 L54.25,289.446 L43.102,289.446 L43.102,295.271 Z" id="Fill-30" fill="#1F3A49" sketch:type="MSShapeGroup"></path>
            <path d="M64.598,289.446 L54.25,289.446 L54.25,295.271 L64.598,295.271 L64.598,289.446 Z" id="Fill-31" fill="#344E5D" sketch:type="MSShapeGroup"></path>
            <path d="M437.757,318.167 L448,318.167 L448,203.565 L437.757,203.565 L437.757,318.167 Z" id="Fill-32" fill="#CA3535" sketch:type="MSShapeGroup"></path>
            <path d="M459.253,203.565 L448,203.565 L448,318.167 L459.253,318.167 L459.253,203.565 Z" id="Fill-33" fill="#DE4949" sketch:type="MSShapeGroup"></path>
            <path d="M437.757,293.52 L448,293.52 L448,287.695 L437.757,287.695 L437.757,293.52 Z" id="Fill-34" fill="#1F3A49" sketch:type="MSShapeGroup"></path>
            <path d="M459.253,287.695 L448,287.695 L448,293.52 L459.253,293.52 L459.253,287.695 Z" id="Fill-35" fill="#344E5D" sketch:type="MSShapeGroup"></path>
            <path d="M437.757,234.958 L448,234.958 L448,229.133 L437.757,229.133 L437.757,234.958 Z" id="Fill-36" fill="#1F3A49" sketch:type="MSShapeGroup"></path>
            <path d="M459.253,229.133 L448,229.133 L448,234.958 L459.253,234.958 L459.253,229.133 Z" id="Fill-37" fill="#344E5D" sketch:type="MSShapeGroup"></path>
            <path d="M458.757,318.167 L469.333,318.167 L469.333,203.565 L458.757,203.565 L458.757,318.167 Z" id="Fill-38" fill="#DAB439" sketch:type="MSShapeGroup"></path>
            <path d="M480.253,203.565 L469.333,203.565 L469.333,318.167 L480.253,318.167 L480.253,203.565 Z" id="Fill-39" fill="#EEC84D" sketch:type="MSShapeGroup"></path>
            <path d="M458.757,306.888 L469.333,306.888 L469.333,301.063 L458.757,301.063 L458.757,306.888 Z" id="Fill-40" fill="#1F3A49" sketch:type="MSShapeGroup"></path>
            <path d="M480.253,301.062 L469.333,301.062 L469.333,306.887 L480.253,306.887 L480.253,301.062 Z" id="Fill-41" fill="#344E5D" sketch:type="MSShapeGroup"></path>
            <path d="M480.253,214.811 L469.333,214.811 L469.333,220.636 L480.253,220.636 L480.253,214.811 Z" id="Fill-42" fill="#344E5D" sketch:type="MSShapeGroup"></path>
            <path d="M458.757,220.636 L469.333,220.636 L469.333,214.811 L458.757,214.811 L458.757,220.636 Z" id="Fill-43" fill="#1F3A49" sketch:type="MSShapeGroup"></path>
            <path d="M480.257,318.167 L491,318.167 L491,203.565 L480.257,203.565 L480.257,318.167 Z" id="Fill-44" fill="#E3E4E5" sketch:type="MSShapeGroup"></path>
            <path d="M501.753,203.565 L491,203.565 L491,318.167 L501.753,318.167 L501.753,203.565 Z" id="Fill-45" fill="#F8F1E6" sketch:type="MSShapeGroup"></path>
            <path d="M501.753,275.283 L491,275.283 L491,281.108 L501.753,281.108 L501.753,275.283 Z" id="Fill-46" fill="#344E5D" sketch:type="MSShapeGroup"></path>
            <path d="M480.257,281.107 L491,281.107 L491,275.282 L480.257,275.282 L480.257,281.107 Z" id="Fill-47" fill="#1F3A49" sketch:type="MSShapeGroup"></path>
            <path d="M480.257,246.415 L491,246.415 L491,240.59 L480.257,240.59 L480.257,246.415 Z" id="Fill-48" fill="#1F3A49" sketch:type="MSShapeGroup"></path>
            <path d="M501.753,240.591 L491,240.591 L491,246.416 L501.753,246.416 L501.753,240.591 Z" id="Fill-49" fill="#344E5D" sketch:type="MSShapeGroup"></path>
            <path d="M68.42,318.167 L77.75,318.167 L77.75,206.002 L68.42,206.002 L68.42,318.167 Z" id="Fill-50" fill="#DAB439" sketch:type="MSShapeGroup"></path>
            <path d="M88.509,206.001 L77.75,206.001 L77.75,318.166 L88.509,318.166 L88.509,206.001 Z" id="Fill-51" fill="#EEC84D" sketch:type="MSShapeGroup"></path>
            <path d="M73.304,311.499 L77.75,311.499 L77.75,279.255 L73.304,279.255 L73.304,311.499 Z" id="Fill-52" fill="#1F3A49" sketch:type="MSShapeGroup"></path>
            <path d="M82.284,279.255 L77.75,279.255 L77.75,311.499 L82.284,311.499 L82.284,279.255 Z" id="Fill-53" fill="#344E5D" sketch:type="MSShapeGroup"></path>
            <path d="M92.93,318.167 L97.75,318.167 L97.75,202.94 L92.93,202.94 L92.93,318.167 Z" id="Fill-54" fill="#CA3535" sketch:type="MSShapeGroup"></path>
            <path d="M102.328,202.94 L97.75,202.94 L97.75,318.167 L102.328,318.167 L102.328,202.94 Z" id="Fill-55" fill="#DE4949" sketch:type="MSShapeGroup"></path>
            <path d="M92.93,273.108 L97.75,273.108 L97.75,244.55 L92.93,244.55 L92.93,273.108 Z" id="Fill-56" fill="#1F3A49" sketch:type="MSShapeGroup"></path>
            <path d="M102.328,244.55 L97.75,244.55 L97.75,273.108 L102.328,273.108 L102.328,244.55 Z" id="Fill-57" fill="#344E5D" sketch:type="MSShapeGroup"></path>
            <path d="M102.336,318.167 L107,318.167 L107,234.813 L102.336,234.813 L102.336,318.167 Z" id="Fill-58" fill="#DAB439" sketch:type="MSShapeGroup"></path>
            <path d="M111.735,234.812 L107,234.812 L107,318.166 L111.735,318.166 L111.735,234.812 Z" id="Fill-59" fill="#EEC84D" sketch:type="MSShapeGroup"></path>
            <path d="M111.735,248.212 L107,248.212 L107,260.078 L111.735,260.078 L111.735,248.212 Z" id="Fill-60" fill="#344E5D" sketch:type="MSShapeGroup"></path>
            <path d="M102.336,260.079 L107,260.079 L107,248.213 L102.336,248.213 L102.336,260.079 Z" id="Fill-61" fill="#1F3A49" sketch:type="MSShapeGroup"></path>
            <path d="M111.4492,201.4771 L111.7582,318.1661 L120.2502,318.1661 L120.2502,201.4771 L111.4492,201.4771 Z" id="Fill-62" fill="#E3DDD2" sketch:type="MSShapeGroup"></path>
            <path d="M129.2842,201.4771 L120.2502,201.4771 L120.2502,318.1661 L129.5922,318.1661 L129.2842,201.4771 Z" id="Fill-63" fill="#F8F1E6" sketch:type="MSShapeGroup"></path>
            <path d="M111.449,228.467 L120.25,228.467 L120.25,217.372 L111.449,217.372 L111.449,228.467 Z" id="Fill-64" fill="#1F3A49" sketch:type="MSShapeGroup"></path>
            <path d="M128.945,217.372 L120.25,217.372 L120.25,228.467 L128.945,228.467 L128.945,217.372 Z" id="Fill-65" fill="#344E5D" sketch:type="MSShapeGroup"></path>
            <path d="M111.449,232.048 L120.25,232.048 L120.25,227.307 L111.449,227.307 L111.449,232.048 Z" id="Fill-66" fill="#DAB439" sketch:type="MSShapeGroup"></path>
            <path d="M128.945,227.307 L120.25,227.307 L120.25,232.048 L128.945,232.048 L128.945,227.307 Z" id="Fill-67" fill="#EEC84D" sketch:type="MSShapeGroup"></path>
            <path d="M129.558,318.167 L133,318.167 L133,224.87 L129.558,224.87 L129.558,318.167 Z" id="Fill-68" fill="#1F3A49" sketch:type="MSShapeGroup"></path>
            <path d="M136.803,224.869 L133,224.869 L133,318.166 L136.803,318.166 L136.803,224.869 Z" id="Fill-69" fill="#344E5D" sketch:type="MSShapeGroup"></path>
            <path d="M136.773,318.167 L140.25,318.167 L140.25,224.87 L136.773,224.87 L136.773,318.167 Z" id="Fill-70" fill="#CA3535" sketch:type="MSShapeGroup"></path>
            <path d="M144.02,224.869 L140.25,224.869 L140.25,318.166 L144.02,318.166 L144.02,224.869 Z" id="Fill-71" fill="#DE4949" sketch:type="MSShapeGroup"></path>
            <path d="M144.104,318.167 L148.5,318.167 L148.5,224.87 L144.104,224.87 L144.104,318.167 Z" id="Fill-72" fill="#DAB439" sketch:type="MSShapeGroup"></path>
            <path d="M153.35,224.869 L148.5,224.869 L148.5,318.166 L153.35,318.166 L153.35,224.869 Z" id="Fill-73" fill="#EEC84D" sketch:type="MSShapeGroup"></path>
            <path d="M361.4492,48.7153 L361.7582,158.4683 L370.3332,158.4683 L370.3332,48.7153 L361.4492,48.7153 Z" id="Fill-74" fill="#2F9D88" sketch:type="MSShapeGroup"></path>
            <path d="M379.2842,48.7153 L370.3332,48.7153 L370.3332,158.4683 L379.5922,158.4683 L379.2842,48.7153 Z" id="Fill-75" fill="#43B19C" sketch:type="MSShapeGroup"></path>
            <path d="M361.491,74.226 L370.333,74.226 L370.333,63.791 L361.491,63.791 L361.491,74.226 Z" id="Fill-76" fill="#1F3A49" sketch:type="MSShapeGroup"></path>
            <path d="M379.279,63.79 L370.334,63.79 L370.334,74.225 L379.279,74.225 L379.279,63.79 Z" id="Fill-77" fill="#344E5D" sketch:type="MSShapeGroup"></path>
            <path d="M361.491,77.594 L370.333,77.594 L370.333,73.134 L361.491,73.134 L361.491,77.594 Z" id="Fill-78" fill="#DAB439" sketch:type="MSShapeGroup"></path>
            <path d="M379.279,73.135 L370.334,73.135 L370.334,77.595 L379.279,77.595 L379.279,73.135 Z" id="Fill-79" fill="#EEC84D" sketch:type="MSShapeGroup"></path>
            <path d="M343.6973,48.7153 L344.0053,158.4683 L353.0003,158.4683 L353.0003,48.7153 L343.6973,48.7153 Z" id="Fill-80" fill="#1F3A49" sketch:type="MSShapeGroup"></path>
            <path d="M361.5313,48.7153 L353.0003,48.7153 L353.0003,158.4683 L361.8403,158.4683 L361.5313,48.7153 Z" id="Fill-81" fill="#344E5D" sketch:type="MSShapeGroup"></path>
            <path d="M348.209,147.689 L353,147.689 L353,90.995 L348.209,90.995 L348.209,147.689 Z" id="Fill-82" fill="#E3DDD2" sketch:type="MSShapeGroup"></path>
            <path d="M357.542,90.994 L353,90.994 L353,147.688 L357.542,147.688 L357.542,90.994 Z" id="Fill-83" fill="#F8F1E6" sketch:type="MSShapeGroup"></path>
            <path d="M271.9673,68.3306 L302.0843,158.4676 L310.6633,155.6316 L279.9933,65.6776 L271.9673,68.3306 Z" id="Fill-84" fill="#1F3A49" sketch:type="MSShapeGroup"></path>
            <path d="M288.9004,62.7334 L279.9934,65.6774 L310.6634,155.6314 L319.0184,152.8704 L288.9004,62.7334 Z" id="Fill-85" fill="#344E5D" sketch:type="MSShapeGroup"></path>
            <path d="M311.4263,143.5962 L297.1283,100.3392 L292.3503,101.9182 L307.0523,145.0412 L311.4263,143.5962 Z" id="Fill-86" fill="#EEC84D" sketch:type="MSShapeGroup"></path>
            <path d="M292.3501,101.9185 L288.2671,103.2685 L302.5641,146.5255 L307.0531,145.0415 L292.3501,101.9185 Z" id="Fill-87" fill="#DAB439" sketch:type="MSShapeGroup"></path>
            <path d="M386.558,158.468 L390.5,158.468 L390.5,71.507 L386.558,71.507 L386.558,158.468 Z" id="Fill-88" fill="#1F3A49" sketch:type="MSShapeGroup"></path>
            <path d="M393.803,71.507 L390.5,71.507 L390.5,158.468 L393.803,158.468 L393.803,71.507 Z" id="Fill-89" fill="#344E5D" sketch:type="MSShapeGroup"></path>
            <path d="M404.02,71.507 L400.5,71.507 L400.5,158.468 L404.02,158.468 L404.02,71.507 Z" id="Fill-90" fill="#DE4949" sketch:type="MSShapeGroup"></path>
            <path d="M396.773,158.468 L400.5,158.468 L400.5,71.507 L396.773,71.507 L396.773,158.468 Z" id="Fill-91" fill="#CA3535" sketch:type="MSShapeGroup"></path>
            <path d="M404.103,158.468 L408.833,158.468 L408.833,71.507 L404.103,71.507 L404.103,158.468 Z" id="Fill-92" fill="#DAB439" sketch:type="MSShapeGroup"></path>
            <path d="M413.35,71.507 L408.834,71.507 L408.834,158.468 L413.35,158.468 L413.35,71.507 Z" id="Fill-93" fill="#EEC84D" sketch:type="MSShapeGroup"></path>
            <path d="M157.22,318.167 L180,318.167 L180,191.378 L157.22,191.378 L157.22,318.167 Z" id="Fill-94" fill="#1F3A49" sketch:type="MSShapeGroup"></path>
            <path d="M202.813,191.378 L180,191.378 L180,318.167 L202.813,318.167 L202.813,191.378 Z" id="Fill-95" fill="#344E5D" sketch:type="MSShapeGroup"></path>
            <path d="M157.172,211.72 L180,211.72 L180,206.641 L157.172,206.641 L157.172,211.72 Z" id="Fill-96" fill="#2F9D88" sketch:type="MSShapeGroup"></path>
            <path d="M202.765,206.641 L180,206.641 L180,211.72 L202.765,211.72 L202.765,206.641 Z" id="Fill-97" fill="#43B19C" sketch:type="MSShapeGroup"></path>
            <path d="M157.172,227.923 L180,227.923 L180,222.843 L157.172,222.843 L157.172,227.923 Z" id="Fill-98" fill="#DAB439" sketch:type="MSShapeGroup"></path>
            <path d="M202.765,222.844 L180,222.844 L180,227.924 L202.765,227.924 L202.765,222.844 Z" id="Fill-99" fill="#EEC84D" sketch:type="MSShapeGroup"></path>
            <path d="M157.172,244.129 L180,244.129 L180,239.049 L157.172,239.049 L157.172,244.129 Z" id="Fill-100" fill="#CD662A" sketch:type="MSShapeGroup"></path>
            <path d="M202.765,239.049 L180,239.049 L180,244.129 L202.765,244.129 L202.765,239.049 Z" id="Fill-101" fill="#E17A3E" sketch:type="MSShapeGroup"></path>
            <path d="M157.172,260.332 L180,260.332 L180,255.252 L157.172,255.252 L157.172,260.332 Z" id="Fill-102" fill="#CA3535" sketch:type="MSShapeGroup"></path>
            <path d="M202.765,255.253 L180,255.253 L180,260.333 L202.765,260.333 L202.765,255.253 Z" id="Fill-103" fill="#DE4949" sketch:type="MSShapeGroup"></path>
            <path d="M331.983,318.167 L338.833,318.167 L338.833,191.378 L331.983,191.378 L331.983,318.167 Z" id="Fill-104" fill="#1F3A49" sketch:type="MSShapeGroup"></path>
            <path d="M346.609,191.378 L338.833,191.378 L338.833,318.167 L346.609,318.167 L346.609,191.378 Z" id="Fill-105" fill="#344E5D" sketch:type="MSShapeGroup"></path>
            <path d="M331.968,211.72 L338.834,211.72 L338.834,206.641 L331.968,206.641 L331.968,211.72 Z" id="Fill-106" fill="#2F9D88" sketch:type="MSShapeGroup"></path>
            <path d="M346.594,206.641 L338.834,206.641 L338.834,211.72 L346.594,211.72 L346.594,206.641 Z" id="Fill-107" fill="#43B19C" sketch:type="MSShapeGroup"></path>
            <path d="M331.968,227.923 L338.834,227.923 L338.834,222.843 L331.968,222.843 L331.968,227.923 Z" id="Fill-108" fill="#DAB439" sketch:type="MSShapeGroup"></path>
            <path d="M346.594,222.844 L338.834,222.844 L338.834,227.924 L346.594,227.924 L346.594,222.844 Z" id="Fill-109" fill="#EEC84D" sketch:type="MSShapeGroup"></path>
            <path d="M331.968,244.129 L338.834,244.129 L338.834,239.049 L331.968,239.049 L331.968,244.129 Z" id="Fill-110" fill="#CD662A" sketch:type="MSShapeGroup"></path>
            <path d="M346.594,239.049 L338.834,239.049 L338.834,244.129 L346.594,244.129 L346.594,239.049 Z" id="Fill-111" fill="#E17A3E" sketch:type="MSShapeGroup"></path>
            <path d="M331.968,260.332 L338.834,260.332 L338.834,255.252 L331.968,255.252 L331.968,260.332 Z" id="Fill-112" fill="#CA3535" sketch:type="MSShapeGroup"></path>
            <path d="M346.594,255.253 L338.834,255.253 L338.834,260.333 L346.594,260.333 L346.594,255.253 Z" id="Fill-113" fill="#DE4949" sketch:type="MSShapeGroup"></path>
            <path d="M221.655,318.167 L229,318.167 L229,221.51 L221.655,221.51 L221.655,318.167 Z" id="Fill-114" fill="#CA3535" sketch:type="MSShapeGroup"></path>
            <path d="M236.801,221.51 L229,221.51 L229,318.167 L236.801,318.167 L236.801,221.51 Z" id="Fill-115" fill="#DE4949" sketch:type="MSShapeGroup"></path>
            <path d="M221.655,288.869 L229,288.869 L229,286.518 L221.655,286.518 L221.655,288.869 Z" id="Fill-116" fill="#DAB439" sketch:type="MSShapeGroup"></path>
            <path d="M236.801,286.518 L229,286.518 L229,288.869 L236.801,288.869 L236.801,286.518 Z" id="Fill-117" fill="#EEC84D" sketch:type="MSShapeGroup"></path>
            <path d="M221.655,304.979 L229,304.979 L229,302.627 L221.655,302.627 L221.655,304.979 Z" id="Fill-118" fill="#DAB439" sketch:type="MSShapeGroup"></path>
            <path d="M236.801,302.628 L229,302.628 L229,304.98 L236.801,304.98 L236.801,302.628 Z" id="Fill-119" fill="#EEC84D" sketch:type="MSShapeGroup"></path>
            <path d="M221.655,302.628 L229,302.628 L229,288.87 L221.655,288.87 L221.655,302.628 Z" id="Fill-120" fill="#1F3A49" sketch:type="MSShapeGroup"></path>
            <path d="M236.801,288.869 L229,288.869 L229,302.627 L236.801,302.627 L236.801,288.869 Z" id="Fill-121" fill="#344E5D" sketch:type="MSShapeGroup"></path>
            <path d="M236.829,318.167 L244.166,318.167 L244.166,221.511 L236.829,221.511 L236.829,318.167 Z" id="Fill-122" fill="#CD662A" sketch:type="MSShapeGroup"></path>
            <path d="M251.975,221.511 L244.167,221.511 L244.167,318.167 L251.975,318.167 L251.975,221.511 Z" id="Fill-123" fill="#E17A3E" sketch:type="MSShapeGroup"></path>
            <path d="M236.829,253.159 L244.166,253.159 L244.166,250.807 L236.829,250.807 L236.829,253.159 Z" id="Fill-124" fill="#DAB439" sketch:type="MSShapeGroup"></path>
            <path d="M251.975,250.807 L244.167,250.807 L244.167,253.159 L251.975,253.159 L251.975,250.807 Z" id="Fill-125" fill="#EEC84D" sketch:type="MSShapeGroup"></path>
            <path d="M236.829,237.048 L244.166,237.048 L244.166,234.697 L236.829,234.697 L236.829,237.048 Z" id="Fill-126" fill="#DAB439" sketch:type="MSShapeGroup"></path>
            <path d="M251.975,234.698 L244.167,234.698 L244.167,237.049 L251.975,237.049 L251.975,234.698 Z" id="Fill-127" fill="#EEC84D" sketch:type="MSShapeGroup"></path>
            <path d="M236.829,250.807 L244.166,250.807 L244.166,237.048 L236.829,237.048 L236.829,250.807 Z" id="Fill-128" fill="#1F3A49" sketch:type="MSShapeGroup"></path>
            <path d="M251.975,237.048 L244.167,237.048 L244.167,250.807 L251.975,250.807 L251.975,237.048 Z" id="Fill-129" fill="#344E5D" sketch:type="MSShapeGroup"></path>
            <path d="M206.646,318.167 L214.5,318.167 L214.5,221.511 L206.646,221.511 L206.646,318.167 Z" id="Fill-130" fill="#2F9D88" sketch:type="MSShapeGroup"></path>
            <path d="M221.793,221.511 L214.5,221.511 L214.5,318.167 L221.793,318.167 L221.793,221.511 Z" id="Fill-131" fill="#43B19C" sketch:type="MSShapeGroup"></path>
            <path d="M206.646,253.16 L214.5,253.16 L214.5,250.809 L206.646,250.809 L206.646,253.16 Z" id="Fill-132" fill="#DAB439" sketch:type="MSShapeGroup"></path>
            <path d="M221.793,250.809 L214.5,250.809 L214.5,253.16 L221.793,253.16 L221.793,250.809 Z" id="Fill-133" fill="#EEC84D" sketch:type="MSShapeGroup"></path>
            <path d="M206.646,237.049 L214.5,237.049 L214.5,234.698 L206.646,234.698 L206.646,237.049 Z" id="Fill-134" fill="#DAB439" sketch:type="MSShapeGroup"></path>
            <path d="M221.793,234.698 L214.5,234.698 L214.5,237.049 L221.793,237.049 L221.793,234.698 Z" id="Fill-135" fill="#EEC84D" sketch:type="MSShapeGroup"></path>
            <path d="M206.646,250.809 L214.5,250.809 L214.5,237.049 L206.646,237.049 L206.646,250.809 Z" id="Fill-136" fill="#1F3A49" sketch:type="MSShapeGroup"></path>
            <path d="M221.793,237.049 L214.5,237.049 L214.5,250.809 L221.793,250.809 L221.793,237.049 Z" id="Fill-137" fill="#344E5D" sketch:type="MSShapeGroup"></path>
            <path d="M428.548,158.468 L436.167,158.468 L436.167,45.048 L428.548,45.048 L428.548,158.468 Z" id="Fill-138" fill="#CA3535" sketch:type="MSShapeGroup"></path>
            <path d="M443.693,45.048 L436.167,45.048 L436.167,158.468 L443.693,158.468 L443.693,45.048 Z" id="Fill-139" fill="#DE4949" sketch:type="MSShapeGroup"></path>
            <path d="M443.693,79.426 L436.167,79.426 L436.167,82.185 L443.693,82.185 L443.693,79.426 Z" id="Fill-140" fill="#EEC84D" sketch:type="MSShapeGroup"></path>
            <path d="M428.548,82.185 L436.167,82.185 L436.167,79.426 L428.548,79.426 L428.548,82.185 Z" id="Fill-141" fill="#DAB439" sketch:type="MSShapeGroup"></path>
            <path d="M428.548,63.281 L436.167,63.281 L436.167,60.522 L428.548,60.522 L428.548,63.281 Z" id="Fill-142" fill="#DAB439" sketch:type="MSShapeGroup"></path>
            <path d="M443.693,60.522 L436.167,60.522 L436.167,63.281 L443.693,63.281 L443.693,60.522 Z" id="Fill-143" fill="#EEC84D" sketch:type="MSShapeGroup"></path>
            <path d="M443.693,63.281 L436.167,63.281 L436.167,79.426 L443.693,79.426 L443.693,63.281 Z" id="Fill-144" fill="#344E5D" sketch:type="MSShapeGroup"></path>
            <path d="M428.548,79.426 L436.167,79.426 L436.167,63.281 L428.548,63.281 L428.548,79.426 Z" id="Fill-145" fill="#1F3A49" sketch:type="MSShapeGroup"></path>
            <path d="M458.881,158.468 L466.667,158.468 L466.667,45.048 L458.881,45.048 L458.881,158.468 Z" id="Fill-146" fill="#E3DDD2" sketch:type="MSShapeGroup"></path>
            <path d="M474.026,45.047 L466.667,45.047 L466.667,158.467 L474.026,158.467 L474.026,45.047 Z" id="Fill-147" fill="#F8F1E6" sketch:type="MSShapeGroup"></path>
            <path d="M458.881,82.184 L466.667,82.184 L466.667,79.426 L458.881,79.426 L458.881,82.184 Z" id="Fill-148" fill="#DAB439" sketch:type="MSShapeGroup"></path>
            <path d="M474.026,79.426 L466.667,79.426 L466.667,82.184 L474.026,82.184 L474.026,79.426 Z" id="Fill-149" fill="#EEC84D" sketch:type="MSShapeGroup"></path>
            <path d="M458.881,63.281 L466.667,63.281 L466.667,60.523 L458.881,60.523 L458.881,63.281 Z" id="Fill-150" fill="#DAB439" sketch:type="MSShapeGroup"></path>
            <path d="M474.026,60.522 L466.667,60.522 L466.667,63.28 L474.026,63.28 L474.026,60.522 Z" id="Fill-151" fill="#EEC84D" sketch:type="MSShapeGroup"></path>
            <path d="M458.881,79.426 L466.667,79.426 L466.667,63.281 L458.881,63.281 L458.881,79.426 Z" id="Fill-152" fill="#1F3A49" sketch:type="MSShapeGroup"></path>
            <path d="M474.026,63.281 L466.667,63.281 L466.667,79.426 L474.026,79.426 L474.026,63.281 Z" id="Fill-153" fill="#344E5D" sketch:type="MSShapeGroup"></path>
            <path d="M413.374,158.468 L421.167,158.468 L421.167,45.049 L413.374,45.049 L413.374,158.468 Z" id="Fill-154" fill="#CD662A" sketch:type="MSShapeGroup"></path>
            <path d="M428.52,45.049 L421.167,45.049 L421.167,158.468 L428.52,158.468 L428.52,45.049 Z" id="Fill-155" fill="#E17A3E" sketch:type="MSShapeGroup"></path>
            <path d="M413.374,124.091 L421.167,124.091 L421.167,121.329 L413.374,121.329 L413.374,124.091 Z" id="Fill-156" fill="#DAB439" sketch:type="MSShapeGroup"></path>
            <path d="M428.52,121.329 L421.167,121.329 L421.167,124.091 L428.52,124.091 L428.52,121.329 Z" id="Fill-157" fill="#EEC84D" sketch:type="MSShapeGroup"></path>
            <path d="M413.374,142.993 L421.167,142.993 L421.167,140.235 L413.374,140.235 L413.374,142.993 Z" id="Fill-158" fill="#DAB439" sketch:type="MSShapeGroup"></path>
            <path d="M428.52,140.235 L421.167,140.235 L421.167,142.993 L428.52,142.993 L428.52,140.235 Z" id="Fill-159" fill="#EEC84D" sketch:type="MSShapeGroup"></path>
            <path d="M428.52,124.091 L421.167,124.091 L421.167,140.236 L428.52,140.236 L428.52,124.091 Z" id="Fill-160" fill="#344E5D" sketch:type="MSShapeGroup"></path>
            <path d="M413.374,140.235 L421.167,140.235 L421.167,124.09 L413.374,124.09 L413.374,140.235 Z" id="Fill-161" fill="#1F3A49" sketch:type="MSShapeGroup"></path>
            <path d="M443.556,158.468 L451.5,158.468 L451.5,59.716 L443.556,59.716 L443.556,158.468 Z" id="Fill-162" fill="#2F9D88" sketch:type="MSShapeGroup"></path>
            <path d="M458.702,59.716 L451.5,59.716 L451.5,158.468 L458.702,158.468 L458.702,59.716 Z" id="Fill-163" fill="#43B19C" sketch:type="MSShapeGroup"></path>
            <path d="M443.556,124.089 L451.5,124.089 L451.5,121.329 L443.556,121.329 L443.556,124.089 Z" id="Fill-164" fill="#DAB439" sketch:type="MSShapeGroup"></path>
            <path d="M458.702,121.329 L451.5,121.329 L451.5,124.089 L458.702,124.089 L458.702,121.329 Z" id="Fill-165" fill="#EEC84D" sketch:type="MSShapeGroup"></path>
            <path d="M443.556,142.993 L451.5,142.993 L451.5,140.234 L443.556,140.234 L443.556,142.993 Z" id="Fill-166" fill="#DAB439" sketch:type="MSShapeGroup"></path>
            <path d="M458.702,140.234 L451.5,140.234 L451.5,142.993 L458.702,142.993 L458.702,140.234 Z" id="Fill-167" fill="#EEC84D" sketch:type="MSShapeGroup"></path>
            <path d="M443.556,140.234 L451.5,140.234 L451.5,124.088 L443.556,124.088 L443.556,140.234 Z" id="Fill-168" fill="#1F3A49" sketch:type="MSShapeGroup"></path>
            <path d="M458.702,124.089 L451.5,124.089 L451.5,140.235 L458.702,140.235 L458.702,124.089 Z" id="Fill-169" fill="#344E5D" sketch:type="MSShapeGroup"></path>
            <path d="M256.906,318.167 L261.666,318.167 L261.666,202.941 L256.906,202.941 L256.906,318.167 Z" id="Fill-170" fill="#CA3535" sketch:type="MSShapeGroup"></path>
            <path d="M266.306,202.94 L261.667,202.94 L261.667,318.166 L266.306,318.166 L266.306,202.94 Z" id="Fill-171" fill="#DE4949" sketch:type="MSShapeGroup"></path>
            <path d="M256.906,273.108 L261.666,273.108 L261.666,244.55 L256.906,244.55 L256.906,273.108 Z" id="Fill-172" fill="#DAB439" sketch:type="MSShapeGroup"></path>
            <path d="M266.306,244.55 L261.667,244.55 L261.667,273.108 L266.306,273.108 L266.306,244.55 Z" id="Fill-173" fill="#EEC84D" sketch:type="MSShapeGroup"></path>
            <path d="M271.312,318.167 L275.833,318.167 L275.833,234.813 L271.312,234.813 L271.312,318.167 Z" id="Fill-174" fill="#2F9D88" sketch:type="MSShapeGroup"></path>
            <path d="M280.711,234.813 L275.834,234.813 L275.834,318.167 L280.711,318.167 L280.711,234.813 Z" id="Fill-175" fill="#43B19C" sketch:type="MSShapeGroup"></path>
            <path d="M271.312,260.079 L275.833,260.079 L275.833,248.213 L271.312,248.213 L271.312,260.079 Z" id="Fill-176" fill="#1F3A49" sketch:type="MSShapeGroup"></path>
            <path d="M280.711,248.212 L275.834,248.212 L275.834,260.078 L280.711,260.078 L280.711,248.212 Z" id="Fill-177" fill="#344E5D" sketch:type="MSShapeGroup"></path>
            <path d="M524.646,318.167 L529.333,318.167 L529.333,234.813 L524.646,234.813 L524.646,318.167 Z" id="Fill-178" fill="#2F9D88" sketch:type="MSShapeGroup"></path>
            <path d="M534.045,234.813 L529.333,234.813 L529.333,318.167 L534.045,318.167 L534.045,234.813 Z" id="Fill-179" fill="#43B19C" sketch:type="MSShapeGroup"></path>
            <path d="M524.646,260.079 L529.333,260.079 L529.333,248.213 L524.646,248.213 L524.646,260.079 Z" id="Fill-180" fill="#1F3A49" sketch:type="MSShapeGroup"></path>
            <path d="M534.045,248.212 L529.333,248.212 L529.333,260.078 L534.045,260.078 L534.045,248.212 Z" id="Fill-181" fill="#344E5D" sketch:type="MSShapeGroup"></path>
            <path d="M280.728,318.167 L285.666,318.167 L285.666,234.813 L280.728,234.813 L280.728,318.167 Z" id="Fill-182" fill="#1F3A49" sketch:type="MSShapeGroup"></path>
            <path d="M290.128,234.813 L285.667,234.813 L285.667,318.167 L290.128,318.167 L290.128,234.813 Z" id="Fill-183" fill="#344E5D" sketch:type="MSShapeGroup"></path>
            <path d="M280.728,260.079 L285.666,260.079 L285.666,248.213 L280.728,248.213 L280.728,260.079 Z" id="Fill-184" fill="#DAB439" sketch:type="MSShapeGroup"></path>
            <path d="M290.128,248.212 L285.667,248.212 L285.667,260.078 L290.128,260.078 L290.128,248.212 Z" id="Fill-185" fill="#EEC84D" sketch:type="MSShapeGroup"></path>
            <path d="M250.53,158.468 L261.666,158.468 L261.666,43.867 L250.53,43.867 L250.53,158.468 Z" id="Fill-186" fill="#CA3535" sketch:type="MSShapeGroup"></path>
            <path d="M272.026,43.867 L261.666,43.867 L261.666,158.468 L272.026,158.468 L272.026,43.867 Z" id="Fill-187" fill="#DE4949" sketch:type="MSShapeGroup"></path>
            <path d="M266.801,118.711 L261.667,118.711 L261.667,151.655 L266.801,151.655 L266.801,118.711 Z" id="Fill-188" fill="#DE4949" sketch:type="MSShapeGroup"></path>
            <path d="M250.53,147.777 L261.666,147.777 L261.666,134.146 L250.53,134.146 L250.53,147.777 Z" id="Fill-189" fill="#2F9D88" sketch:type="MSShapeGroup"></path>
            <path d="M272.026,134.146 L261.666,134.146 L261.666,147.777 L272.026,147.777 L272.026,134.146 Z" id="Fill-190" fill="#43B19C" sketch:type="MSShapeGroup"></path>
            <path d="M250.53,135.572 L261.666,135.572 L261.666,129.747 L250.53,129.747 L250.53,135.572 Z" id="Fill-191" fill="#1F3A49" sketch:type="MSShapeGroup"></path>
            <path d="M272.026,129.748 L261.666,129.748 L261.666,135.573 L272.026,135.573 L272.026,129.748 Z" id="Fill-192" fill="#344E5D" sketch:type="MSShapeGroup"></path>
            <path d="M121.53,158.468 L137.667,158.468 L137.667,43.867 L121.53,43.867 L121.53,158.468 Z" id="Fill-193" fill="#CA3535" sketch:type="MSShapeGroup"></path>
            <path d="M152.526,43.867 L137.667,43.867 L137.667,158.468 L152.526,158.468 L152.526,43.867 Z" id="Fill-194" fill="#DE4949" sketch:type="MSShapeGroup"></path>
            <path d="M144.991,118.711 L137.667,118.711 L137.667,151.655 L144.991,151.655 L144.991,118.711 Z" id="Fill-195" fill="#DE4949" sketch:type="MSShapeGroup"></path>
            <path d="M121.53,147.777 L137.667,147.777 L137.667,134.146 L121.53,134.146 L121.53,147.777 Z" id="Fill-196" fill="#2F9D88" sketch:type="MSShapeGroup"></path>
            <path d="M152.526,134.146 L137.667,134.146 L137.667,147.777 L152.526,147.777 L152.526,134.146 Z" id="Fill-197" fill="#43B19C" sketch:type="MSShapeGroup"></path>
            <path d="M121.53,135.572 L137.667,135.572 L137.667,129.747 L121.53,129.747 L121.53,135.572 Z" id="Fill-198" fill="#1F3A49" sketch:type="MSShapeGroup"></path>
            <path d="M152.526,129.748 L137.667,129.748 L137.667,135.573 L152.526,135.573 L152.526,129.748 Z" id="Fill-199" fill="#344E5D" sketch:type="MSShapeGroup"></path>
            <path d="M246.708,46.302 L237.166,46.302 L237.166,158.467 L246.708,158.467 L246.708,46.302 Z" id="Fill-200" fill="#EEC84D" sketch:type="MSShapeGroup"></path>
            <path d="M226.619,158.468 L237.166,158.468 L237.166,46.303 L226.619,46.303 L226.619,158.468 Z" id="Fill-201" fill="#DAB439" sketch:type="MSShapeGroup"></path>
            <path d="M232.844,151.8 L237.167,151.8 L237.167,119.556 L232.844,119.556 L232.844,151.8 Z" id="Fill-202" fill="#1F3A49" sketch:type="MSShapeGroup"></path>
            <path d="M241.824,119.557 L237.166,119.557 L237.166,151.801 L241.824,151.801 L241.824,119.557 Z" id="Fill-203" fill="#344E5D" sketch:type="MSShapeGroup"></path>
            <path d="M212.8,158.468 L217.834,158.468 L217.834,43.241 L212.8,43.241 L212.8,158.468 Z" id="Fill-204" fill="#CA3535" sketch:type="MSShapeGroup"></path>
            <path d="M222.198,43.241 L217.833,43.241 L217.833,158.468 L222.198,158.468 L222.198,43.241 Z" id="Fill-205" fill="#DE4949" sketch:type="MSShapeGroup"></path>
            <path d="M222.198,84.852 L217.833,84.852 L217.833,113.41 L222.198,113.41 L222.198,84.852 Z" id="Fill-206" fill="#344E5D" sketch:type="MSShapeGroup"></path>
            <path d="M212.8,113.41 L217.834,113.41 L217.834,84.852 L212.8,84.852 L212.8,113.41 Z" id="Fill-207" fill="#1F3A49" sketch:type="MSShapeGroup"></path>
            <path d="M203.393,158.468 L208.334,158.468 L208.334,75.114 L203.393,75.114 L203.393,158.468 Z" id="Fill-208" fill="#DAB439" sketch:type="MSShapeGroup"></path>
            <path d="M212.792,75.114 L208.333,75.114 L208.333,158.468 L212.792,158.468 L212.792,75.114 Z" id="Fill-209" fill="#EEC84D" sketch:type="MSShapeGroup"></path>
            <path d="M203.393,100.38 L208.334,100.38 L208.334,88.514 L203.393,88.514 L203.393,100.38 Z" id="Fill-210" fill="#1F3A49" sketch:type="MSShapeGroup"></path>
            <path d="M212.792,88.514 L208.333,88.514 L208.333,100.38 L212.792,100.38 L212.792,88.514 Z" id="Fill-211" fill="#344E5D" sketch:type="MSShapeGroup"></path>
            <path d="M185.8438,41.7783 L185.5358,158.4683 L195.1668,158.4683 L195.1668,41.7783 L185.8438,41.7783 Z" id="Fill-212" fill="#E3DDD2" sketch:type="MSShapeGroup"></path>
            <path d="M203.6787,41.7783 L195.1667,41.7783 L195.1667,158.4683 L203.3697,158.4683 L203.6787,41.7783 Z" id="Fill-213" fill="#F8F1E6" sketch:type="MSShapeGroup"></path>
            <path d="M186.183,68.768 L195.167,68.768 L195.167,57.673 L186.183,57.673 L186.183,68.768 Z" id="Fill-214" fill="#1F3A49" sketch:type="MSShapeGroup"></path>
            <path d="M203.679,57.673 L195.167,57.673 L195.167,68.768 L203.679,68.768 L203.679,57.673 Z" id="Fill-215" fill="#344E5D" sketch:type="MSShapeGroup"></path>
            <path d="M203.679,67.608 L195.167,67.608 L195.167,72.349 L203.679,72.349 L203.679,67.608 Z" id="Fill-216" fill="#EEC84D" sketch:type="MSShapeGroup"></path>
            <path d="M186.183,72.35 L195.167,72.35 L195.167,67.609 L186.183,67.609 L186.183,72.35 Z" id="Fill-217" fill="#DAB439" sketch:type="MSShapeGroup"></path>
            <path d="M178.325,158.468 L182.167,158.468 L182.167,65.171 L178.325,65.171 L178.325,158.468 Z" id="Fill-218" fill="#344E5D" sketch:type="MSShapeGroup"></path>
            <path d="M185.57,65.17 L182.167,65.17 L182.167,158.467 L185.57,158.467 L185.57,65.17 Z" id="Fill-219" fill="#344E5D" sketch:type="MSShapeGroup"></path>
            <path d="M171.108,158.468 L174.667,158.468 L174.667,65.171 L171.108,65.171 L171.108,158.468 Z" id="Fill-220" fill="#CA3535" sketch:type="MSShapeGroup"></path>
            <path d="M178.354,65.17 L174.667,65.17 L174.667,158.467 L178.354,158.467 L178.354,65.17 Z" id="Fill-221" fill="#CA3535" sketch:type="MSShapeGroup"></path>
            <path d="M152.278,158.468 L162.333,158.468 L162.333,65.171 L152.278,65.171 L152.278,158.468 Z" id="Fill-222" fill="#DAB439" sketch:type="MSShapeGroup"></path>
            <path d="M171.024,65.17 L162.333,65.17 L162.333,158.467 L171.024,158.467 L171.024,65.17 Z" id="Fill-223" fill="#EEC84D" sketch:type="MSShapeGroup"></path>
            <path d="M83.327,158.468 L91.333,158.468 L91.333,61.811 L83.327,61.811 L83.327,158.468 Z" id="Fill-224" fill="#CA3535" sketch:type="MSShapeGroup"></path>
            <path d="M98.473,61.811 L91.334,61.811 L91.334,158.468 L98.473,158.468 L98.473,61.811 Z" id="Fill-225" fill="#DE4949" sketch:type="MSShapeGroup"></path>
            <path d="M83.327,129.17 L91.333,129.17 L91.333,126.819 L83.327,126.819 L83.327,129.17 Z" id="Fill-226" fill="#DAB439" sketch:type="MSShapeGroup"></path>
            <path d="M98.473,126.819 L91.334,126.819 L91.334,129.17 L98.473,129.17 L98.473,126.819 Z" id="Fill-227" fill="#EEC84D" sketch:type="MSShapeGroup"></path>
            <path d="M83.327,145.28 L91.333,145.28 L91.333,142.928 L83.327,142.928 L83.327,145.28 Z" id="Fill-228" fill="#DAB439" sketch:type="MSShapeGroup"></path>
            <path d="M98.473,142.929 L91.334,142.929 L91.334,145.281 L98.473,145.281 L98.473,142.929 Z" id="Fill-229" fill="#EEC84D" sketch:type="MSShapeGroup"></path>
            <path d="M83.327,142.929 L91.333,142.929 L91.333,129.171 L83.327,129.171 L83.327,142.929 Z" id="Fill-230" fill="#1F3A49" sketch:type="MSShapeGroup"></path>
            <path d="M98.473,129.17 L91.334,129.17 L91.334,142.928 L98.473,142.928 L98.473,129.17 Z" id="Fill-231" fill="#344E5D" sketch:type="MSShapeGroup"></path>
            <path d="M68.153,158.468 L76,158.468 L76,61.812 L68.153,61.812 L68.153,158.468 Z" id="Fill-232" fill="#CD662A" sketch:type="MSShapeGroup"></path>
            <path d="M83.299,61.812 L76,61.812 L76,158.468 L83.299,158.468 L83.299,61.812 Z" id="Fill-233" fill="#E17A3E" sketch:type="MSShapeGroup"></path>
            <path d="M68.153,93.46 L76,93.46 L76,91.108 L68.153,91.108 L68.153,93.46 Z" id="Fill-234" fill="#DAB439" sketch:type="MSShapeGroup"></path>
            <path d="M83.299,91.108 L76,91.108 L76,93.46 L83.299,93.46 L83.299,91.108 Z" id="Fill-235" fill="#EEC84D" sketch:type="MSShapeGroup"></path>
            <path d="M68.153,77.35 L76,77.35 L76,74.999 L68.153,74.999 L68.153,77.35 Z" id="Fill-236" fill="#DAB439" sketch:type="MSShapeGroup"></path>
            <path d="M83.299,74.999 L76,74.999 L76,77.35 L83.299,77.35 L83.299,74.999 Z" id="Fill-237" fill="#EEC84D" sketch:type="MSShapeGroup"></path>
            <path d="M68.153,91.108 L76,91.108 L76,77.349 L68.153,77.349 L68.153,91.108 Z" id="Fill-238" fill="#1F3A49" sketch:type="MSShapeGroup"></path>
            <path d="M83.299,77.35 L76,77.35 L76,91.109 L83.299,91.109 L83.299,77.35 Z" id="Fill-239" fill="#344E5D" sketch:type="MSShapeGroup"></path>
            <path d="M113.481,61.812 L106.167,61.812 L106.167,158.468 L113.481,158.468 L113.481,61.812 Z" id="Fill-240" fill="#43B19C" sketch:type="MSShapeGroup"></path>
            <path d="M98.335,158.468 L106.167,158.468 L106.167,61.812 L98.335,61.812 L98.335,158.468 Z" id="Fill-241" fill="#43B19C" sketch:type="MSShapeGroup"></path>
            <path d="M98.335,93.461 L106.167,93.461 L106.167,91.11 L98.335,91.11 L98.335,93.461 Z" id="Fill-242" fill="#EEC84D" sketch:type="MSShapeGroup"></path>
            <path d="M113.481,91.11 L106.167,91.11 L106.167,93.461 L113.481,93.461 L113.481,91.11 Z" id="Fill-243" fill="#EEC84D" sketch:type="MSShapeGroup"></path>
            <path d="M98.335,77.351 L106.167,77.351 L106.167,75 L98.335,75 L98.335,77.351 Z" id="Fill-244" fill="#DAB439" sketch:type="MSShapeGroup"></path>
            <path d="M113.481,75 L106.167,75 L106.167,77.351 L113.481,77.351 L113.481,75 Z" id="Fill-245" fill="#EEC84D" sketch:type="MSShapeGroup"></path>
            <path d="M113.481,77.351 L106.167,77.351 L106.167,91.111 L113.481,91.111 L113.481,77.351 Z" id="Fill-246" fill="#344E5D" sketch:type="MSShapeGroup"></path>
            <path d="M98.335,91.11 L106.167,91.11 L106.167,77.35 L98.335,77.35 L98.335,91.11 Z" id="Fill-247" fill="#1F3A49" sketch:type="MSShapeGroup"></path>
            <path d="M53.822,158.468 L59,158.468 L59,43.242 L53.822,43.242 L53.822,158.468 Z" id="Fill-248" fill="#CA3535" sketch:type="MSShapeGroup"></path>
            <path d="M63.222,43.242 L59,43.242 L59,158.468 L63.222,158.468 L63.222,43.242 Z" id="Fill-249" fill="#DE4949" sketch:type="MSShapeGroup"></path>
            <path d="M53.822,113.41 L59,113.41 L59,84.852 L53.822,84.852 L53.822,113.41 Z" id="Fill-250" fill="#DAB439" sketch:type="MSShapeGroup"></path>
            <path d="M63.222,84.852 L59,84.852 L59,113.41 L63.222,113.41 L63.222,84.852 Z" id="Fill-251" fill="#EEC84D" sketch:type="MSShapeGroup"></path>
            <path d="M48.815,75.114 L44.333,75.114 L44.333,158.468 L48.815,158.468 L48.815,75.114 Z" id="Fill-252" fill="#43B19C" sketch:type="MSShapeGroup"></path>
            <path d="M39.417,158.468 L44.334,158.468 L44.334,75.114 L39.417,75.114 L39.417,158.468 Z" id="Fill-253" fill="#2F9D88" sketch:type="MSShapeGroup"></path>
            <path d="M48.815,88.514 L44.333,88.514 L44.333,100.38 L48.815,100.38 L48.815,88.514 Z" id="Fill-254" fill="#344E5D" sketch:type="MSShapeGroup"></path>
            <path d="M39.417,100.38 L44.334,100.38 L44.334,88.514 L39.417,88.514 L39.417,100.38 Z" id="Fill-255" fill="#1F3A49" sketch:type="MSShapeGroup"></path>
            <path d="M30,158.468 L34.5,158.468 L34.5,75.114 L30,75.114 L30,158.468 Z" id="Fill-256" fill="#1F3A49" sketch:type="MSShapeGroup"></path>
            <path d="M39.399,75.114 L34.5,75.114 L34.5,158.468 L39.399,158.468 L39.399,75.114 Z" id="Fill-257" fill="#344E5D" sketch:type="MSShapeGroup"></path>
            <path d="M30,100.38 L34.5,100.38 L34.5,88.514 L30,88.514 L30,100.38 Z" id="Fill-258" fill="#DAB439" sketch:type="MSShapeGroup"></path>
            <path d="M39.399,88.514 L34.5,88.514 L34.5,100.38 L39.399,100.38 L39.399,88.514 Z" id="Fill-259" fill="#EEC84D" sketch:type="MSShapeGroup"></path>
            <path d="M290.031,318.167 L294.5,318.167 L294.5,234.813 L290.031,234.813 L290.031,318.167 Z" id="Fill-260" fill="#CA3535" sketch:type="MSShapeGroup"></path>
            <path d="M299.43,234.813 L294.5,234.813 L294.5,318.167 L299.43,318.167 L299.43,234.813 Z" id="Fill-261" fill="#DE4949" sketch:type="MSShapeGroup"></path>
            <path d="M299.43,248.212 L294.5,248.212 L294.5,260.078 L299.43,260.078 L299.43,248.212 Z" id="Fill-262" fill="#344E5D" sketch:type="MSShapeGroup"></path>
            <path d="M290.031,260.079 L294.5,260.079 L294.5,248.213 L290.031,248.213 L290.031,260.079 Z" id="Fill-263" fill="#1F3A49" sketch:type="MSShapeGroup"></path>
            <path d="M332.037,234.813 L327.167,234.813 L327.167,318.167 L332.037,318.167 L332.037,234.813 Z" id="Fill-264" fill="#EEC84D" sketch:type="MSShapeGroup"></path>
            <path d="M322.639,318.167 L327.167,318.167 L327.167,234.813 L322.639,234.813 L322.639,318.167 Z" id="Fill-265" fill="#DAB439" sketch:type="MSShapeGroup"></path>
            <path d="M322.639,260.079 L327.167,260.079 L327.167,248.213 L322.639,248.213 L322.639,260.079 Z" id="Fill-266" fill="#1F3A49" sketch:type="MSShapeGroup"></path>
            <path d="M332.037,248.212 L327.167,248.212 L327.167,260.078 L332.037,260.078 L332.037,248.212 Z" id="Fill-267" fill="#344E5D" sketch:type="MSShapeGroup"></path>
            <path d="M322.683,193.808 L311,193.808 L311,318.167 L322.683,318.167 L322.683,193.808 Z" id="Fill-268" fill="#43B19C" sketch:type="MSShapeGroup"></path>
            <path d="M299.355,318.167 L311,318.167 L311,193.808 L299.355,193.808 L299.355,318.167 Z" id="Fill-269" fill="#2F9D88" sketch:type="MSShapeGroup"></path>
            <path d="M322.6824,293.3221 L322.6824,287.0011 L322.6824,293.3221 Z" id="Fill-270" fill="#344E5D" sketch:type="MSShapeGroup"></path>
            <path d="M299.3553,293.3221 L299.3553,287.0011 L299.3553,293.3221 Z" id="Fill-271" fill="#344E5D" sketch:type="MSShapeGroup"></path>
            <path d="M312.46,318.167 L318.024,318.167 L318.024,193.749 L312.46,193.749 L312.46,318.167 Z" id="Fill-272" fill="#DE4949" sketch:type="MSShapeGroup"></path>
            <path d="M303.733,318.167 L309.298,318.167 L309.298,193.749 L303.733,193.749 L303.733,318.167 Z" id="Fill-273" fill="#DAB439" sketch:type="MSShapeGroup"></path>
            <path d="M679.978,83.483 L689.377,83.483 L689.377,158.467 L679.978,158.467 L679.978,83.483 Z" id="Fill-274" fill="#43B19C" sketch:type="MSShapeGroup"></path>
            <path d="M679.978,106.212 L689.377,106.212 L689.377,95.537 L679.978,95.537 L679.978,106.212 Z" id="Fill-275" fill="#344E5D" sketch:type="MSShapeGroup"></path>
            <path d="M501.688,318.167 L514,318.167 L514,193.808 L501.688,193.808 L501.688,318.167 Z" id="Fill-276" fill="#1F3A49" sketch:type="MSShapeGroup"></path>
            <path d="M525.016,193.808 L514,193.808 L514,318.167 L525.016,318.167 L525.016,193.808 Z" id="Fill-277" fill="#344E5D" sketch:type="MSShapeGroup"></path>
            <path d="M525.0159,293.3212 L525.0159,287.0012 L525.0159,293.3212 Z" id="Fill-278" fill="#344E5D" sketch:type="MSShapeGroup"></path>
            <path d="M501.6888,293.3212 L501.6888,287.0012 L501.6888,293.3212 Z" id="Fill-279" fill="#344E5D" sketch:type="MSShapeGroup"></path>
            <path d="M515.793,318.167 L521.357,318.167 L521.357,193.749 L515.793,193.749 L515.793,318.167 Z" id="Fill-280" fill="#DE4949" sketch:type="MSShapeGroup"></path>
            <path d="M506.066,318.167 L511.631,318.167 L511.631,193.749 L506.066,193.749 L506.066,318.167 Z" id="Fill-281" fill="#DAB439" sketch:type="MSShapeGroup"></path>
            <path d="M346.688,196.6069 L374.164,318.1669 L385.715,315.7869 L357.425,194.3949 L346.688,196.6069 Z" id="Fill-282" fill="#CA3535" sketch:type="MSShapeGroup"></path>
            <path d="M369.4902,191.9082 L357.4252,194.3942 L385.7152,315.7862 L396.9662,313.4682 L369.4902,191.9082 Z" id="Fill-283" fill="#DE4949" sketch:type="MSShapeGroup"></path>
            <path d="M391.4766,289.1821 L390.0796,283.0041" id="Fill-284" fill="#344E5D" sketch:type="MSShapeGroup"></path>
            <path d="M367.2778,287.7031 L368.6738,293.8811" id="Fill-285" fill="#344E5D" sketch:type="MSShapeGroup"></path>
            <path d="M392.4121,314.4068 L364.9241,192.7888 L359.4851,193.9098 L386.9731,315.5278 L392.4121,314.4068 Z" id="Fill-286" fill="#EEC84D" sketch:type="MSShapeGroup"></path>
            <path d="M350.9546,195.6675 L378.4426,317.2855 L383.8826,316.1635 L356.3946,194.5465 L350.9546,195.6675 Z" id="Fill-287" fill="#DAB439" sketch:type="MSShapeGroup"></path>
            <path d="M416.781,318.167 L427.833,318.167 L427.833,203.565 L416.781,203.565 L416.781,318.167 Z" id="Fill-288" fill="#CD662A" sketch:type="MSShapeGroup"></path>
            <path d="M438.277,203.565 L427.833,203.565 L427.833,318.167 L438.277,318.167 L438.277,203.565 Z" id="Fill-289" fill="#E17A3E" sketch:type="MSShapeGroup"></path>
            <path d="M416.781,306.888 L427.833,306.888 L427.833,301.063 L416.781,301.063 L416.781,306.888 Z" id="Fill-290" fill="#1F3A49" sketch:type="MSShapeGroup"></path>
            <path d="M438.277,301.062 L427.833,301.062 L427.833,306.887 L438.277,306.887 L438.277,301.062 Z" id="Fill-291" fill="#344E5D" sketch:type="MSShapeGroup"></path>
            <path d="M416.781,220.636 L427.833,220.636 L427.833,214.811 L416.781,214.811 L416.781,220.636 Z" id="Fill-292" fill="#1F3A49" sketch:type="MSShapeGroup"></path>
            <path d="M438.277,214.811 L427.833,214.811 L427.833,220.636 L438.277,220.636 L438.277,214.811 Z" id="Fill-293" fill="#344E5D" sketch:type="MSShapeGroup"></path>
            <path d="M424.279,271.21 L427.833,271.21 L427.833,229.198 L424.279,229.198 L424.279,271.21 Z" id="Fill-294" fill="#1F3A49" sketch:type="MSShapeGroup"></path>
            <path d="M430.779,229.198 L427.833,229.198 L427.833,271.21 L430.779,271.21 L430.779,229.198 Z" id="Fill-295" fill="#344E5D" sketch:type="MSShapeGroup"></path>
            <path d="M594.024,158.468 L605,158.468 L605,43.866 L594.024,43.866 L594.024,158.468 Z" id="Fill-296" fill="#CD662A" sketch:type="MSShapeGroup"></path>
            <path d="M615.521,43.866 L605,43.866 L605,158.468 L615.521,158.468 L615.521,43.866 Z" id="Fill-297" fill="#E17A3E" sketch:type="MSShapeGroup"></path>
            <path d="M594.024,147.189 L605,147.189 L605,141.364 L594.024,141.364 L594.024,147.189 Z" id="Fill-298" fill="#1F3A49" sketch:type="MSShapeGroup"></path>
            <path d="M615.521,141.364 L605,141.364 L605,147.189 L615.521,147.189 L615.521,141.364 Z" id="Fill-299" fill="#344E5D" sketch:type="MSShapeGroup"></path>
            <path d="M594.024,60.937 L605,60.937 L605,55.112 L594.024,55.112 L594.024,60.937 Z" id="Fill-300" fill="#1F3A49" sketch:type="MSShapeGroup"></path>
            <path d="M615.521,55.112 L605,55.112 L605,60.937 L615.521,60.937 L615.521,55.112 Z" id="Fill-301" fill="#344E5D" sketch:type="MSShapeGroup"></path>
            <path d="M601.522,111.511 L605,111.511 L605,69.499 L601.522,69.499 L601.522,111.511 Z" id="Fill-302" fill="#1F3A49" sketch:type="MSShapeGroup"></path>
            <path d="M608.022,69.499 L605,69.499 L605,111.511 L608.022,111.511 L608.022,69.499 Z" id="Fill-303" fill="#344E5D" sketch:type="MSShapeGroup"></path>
            <path d="M489.307,158.468 L579.576,158.468 L579.576,148.2 L489.307,148.2 L489.307,158.468 Z" id="Fill-304" fill="#E17A3E" sketch:type="MSShapeGroup"></path>
            <path d="M579.575,136.972 L489.306,136.972 L489.306,148.201 L579.575,148.201 L579.575,136.972 Z" id="Fill-305" fill="#CD662A" sketch:type="MSShapeGroup"></path>
            <path d="M502.778,136.972 L498.19,136.972 L498.19,148.201 L502.778,148.201 L502.778,136.972 Z" id="Fill-306" fill="#1F3A49" sketch:type="MSShapeGroup"></path>
            <path d="M498.19,158.468 L502.778,158.468 L502.778,148.2 L498.19,148.2 L498.19,158.468 Z" id="Fill-307" fill="#344E5D" sketch:type="MSShapeGroup"></path>
            <path d="M570.718,136.972 L566.129,136.972 L566.129,148.201 L570.718,148.201 L570.718,136.972 Z" id="Fill-308" fill="#1F3A49" sketch:type="MSShapeGroup"></path>
            <path d="M566.129,158.468 L570.718,158.468 L570.718,148.2 L566.129,148.2 L566.129,158.468 Z" id="Fill-309" fill="#344E5D" sketch:type="MSShapeGroup"></path>
            <path d="M559.385,144.47 L526.293,144.47 L526.293,148.2 L559.385,148.2 L559.385,144.47 Z" id="Fill-310" fill="#1F3A49" sketch:type="MSShapeGroup"></path>
            <path d="M526.293,150.97 L559.385,150.97 L559.385,148.2 L526.293,148.2 L526.293,150.97 Z" id="Fill-311" fill="#344E5D" sketch:type="MSShapeGroup"></path>
            <path d="M579.575,115.305 L489.306,115.305 L489.306,125.95 L579.575,125.95 L579.575,115.305 Z" id="Fill-312" fill="#DAB439" sketch:type="MSShapeGroup"></path>
            <path d="M489.307,136.801 L579.576,136.801 L579.576,125.95 L489.307,125.95 L489.307,136.801 Z" id="Fill-313" fill="#EEC84D" sketch:type="MSShapeGroup"></path>
            <path d="M502.778,115.305 L498.19,115.305 L498.19,125.95 L502.778,125.95 L502.778,115.305 Z" id="Fill-314" fill="#E3DDD2" sketch:type="MSShapeGroup"></path>
            <path d="M498.19,136.801 L502.778,136.801 L502.778,125.95 L498.19,125.95 L498.19,136.801 Z" id="Fill-315" fill="#F8F1E6" sketch:type="MSShapeGroup"></path>
            <path d="M570.718,115.305 L566.129,115.305 L566.129,125.95 L570.718,125.95 L570.718,115.305 Z" id="Fill-316" fill="#E3DDD2" sketch:type="MSShapeGroup"></path>
            <path d="M566.129,136.801 L570.718,136.801 L570.718,125.95 L566.129,125.95 L566.129,136.801 Z" id="Fill-317" fill="#F8F1E6" sketch:type="MSShapeGroup"></path>
            <path d="M559.385,122.803 L526.293,122.803 L526.293,125.95 L559.385,125.95 L559.385,122.803 Z" id="Fill-318" fill="#E3DDD2" sketch:type="MSShapeGroup"></path>
            <path d="M526.293,129.303 L559.385,129.303 L559.385,125.95 L526.293,125.95 L526.293,129.303 Z" id="Fill-319" fill="#F8F1E6" sketch:type="MSShapeGroup"></path>
            <path d="M579.575,99.013 L489.306,99.013 L489.306,107.451 L579.575,107.451 L579.575,99.013 Z" id="Fill-320" fill="#CA3535" sketch:type="MSShapeGroup"></path>
            <path d="M489.307,115.134 L579.576,115.134 L579.576,107.45 L489.307,107.45 L489.307,115.134 Z" id="Fill-321" fill="#DE4949" sketch:type="MSShapeGroup"></path>
            <path d="M498.19,115.134 L502.778,115.134 L502.778,107.45 L498.19,107.45 L498.19,115.134 Z" id="Fill-322" fill="#344E5D" sketch:type="MSShapeGroup"></path>
            <path d="M502.778,99.013 L498.19,99.013 L498.19,107.451 L502.778,107.451 L502.778,99.013 Z" id="Fill-323" fill="#1F3A49" sketch:type="MSShapeGroup"></path>
            <path d="M566.129,115.134 L570.718,115.134 L570.718,107.45 L566.129,107.45 L566.129,115.134 Z" id="Fill-324" fill="#344E5D" sketch:type="MSShapeGroup"></path>
            <path d="M570.718,99.013 L566.129,99.013 L566.129,107.451 L570.718,107.451 L570.718,99.013 Z" id="Fill-325" fill="#1F3A49" sketch:type="MSShapeGroup"></path>
            <path d="M526.293,109.511 L559.385,109.511 L559.385,107.45 L526.293,107.45 L526.293,109.511 Z" id="Fill-326" fill="#344E5D" sketch:type="MSShapeGroup"></path>
            <path d="M559.385,104.636 L526.293,104.636 L526.293,107.45 L559.385,107.45 L559.385,104.636 Z" id="Fill-327" fill="#1F3A49" sketch:type="MSShapeGroup"></path>
            <path d="M694.414,318.167 L713.668,318.167 L713.668,217.003 L694.414,217.003 L694.414,318.167 Z" id="Fill-328" fill="#DAB439" sketch:type="MSShapeGroup"></path>
            <path d="M734,217.003 L713.668,217.003 L713.668,318.167 L734,318.167 L734,217.003 Z" id="Fill-329" fill="#EEC84D" sketch:type="MSShapeGroup"></path>
            <path d="M694.414,275.5 L714.001,275.5 L714.001,237.336 L694.414,237.336 L694.414,275.5 Z" id="Fill-330" fill="#1F3A49" sketch:type="MSShapeGroup"></path>
            <path d="M734,237.336 L714.001,237.336 L714.001,275.5 L734,275.5 L734,237.336 Z" id="Fill-331" fill="#344E5D" sketch:type="MSShapeGroup"></path>
            <path d="M742.414,318.167 L762.668,318.167 L762.668,217.003 L742.414,217.003 L742.414,318.167 Z" id="Fill-332" fill="#2F9D88" sketch:type="MSShapeGroup"></path>
            <path d="M782,217.003 L762.668,217.003 L762.668,318.167 L782,318.167 L782,217.003 Z" id="Fill-333" fill="#43B19C" sketch:type="MSShapeGroup"></path>
            <path d="M742.414,275.5 L762.668,275.5 L762.668,237.336 L742.414,237.336 L742.414,275.5 Z" id="Fill-334" fill="#1F3A49" sketch:type="MSShapeGroup"></path>
            <path d="M782,237.336 L762.668,237.336 L762.668,275.5 L782,275.5 L782,237.336 Z" id="Fill-335" fill="#344E5D" sketch:type="MSShapeGroup"></path>
            <path d="M790.414,318.167 L810.168,318.167 L810.168,217.003 L790.414,217.003 L790.414,318.167 Z" id="Fill-336" fill="#CD662A" sketch:type="MSShapeGroup"></path>
            <path d="M830,217.003 L810.168,217.003 L810.168,318.167 L830,318.167 L830,217.003 Z" id="Fill-337" fill="#E17A3E" sketch:type="MSShapeGroup"></path>
            <path d="M790.414,275.5 L810.168,275.5 L810.168,237.336 L790.414,237.336 L790.414,275.5 Z" id="Fill-338" fill="#1F3A49" sketch:type="MSShapeGroup"></path>
            <path d="M830,237.336 L810.168,237.336 L810.168,275.5 L830,275.5 L830,237.336 Z" id="Fill-339" fill="#344E5D" sketch:type="MSShapeGroup"></path>
            <path d="M680.944,288.012 L565.454,288.012 L565.454,295.114 L680.944,295.114 L680.944,288.012 Z" id="Fill-340" fill="#CA3535" sketch:type="MSShapeGroup"></path>
            <path d="M565.454,303.158 L680.944,303.158 L680.944,295.114 L565.454,295.114 L565.454,303.158 Z" id="Fill-341" fill="#DE4949" sketch:type="MSShapeGroup"></path>
            <path d="M645.938,288.012 L643.129,288.012 L643.129,295.114 L645.938,295.114 L645.938,288.012 Z" id="Fill-342" fill="#DAB439" sketch:type="MSShapeGroup"></path>
            <path d="M643.13,303.158 L645.939,303.158 L645.939,295.114 L643.13,295.114 L643.13,303.158 Z" id="Fill-343" fill="#EEC84D" sketch:type="MSShapeGroup"></path>
            <path d="M662.378,303.158 L665.188,303.158 L665.188,295.114 L662.378,295.114 L662.378,303.158 Z" id="Fill-344" fill="#EEC84D" sketch:type="MSShapeGroup"></path>
            <path d="M665.187,288.012 L662.377,288.012 L662.377,295.114 L665.187,295.114 L665.187,288.012 Z" id="Fill-345" fill="#DAB439" sketch:type="MSShapeGroup"></path>
            <path d="M662.378,288.012 L645.939,288.012 L645.939,295.114 L662.378,295.114 L662.378,288.012 Z" id="Fill-346" fill="#1F3A49" sketch:type="MSShapeGroup"></path>
            <path d="M645.938,303.158 L662.377,303.158 L662.377,295.114 L645.938,295.114 L645.938,303.158 Z" id="Fill-347" fill="#344E5D" sketch:type="MSShapeGroup"></path>
            <path d="M680.944,272.838 L565.455,272.838 L565.455,280.78 L680.944,280.78 L680.944,272.838 Z" id="Fill-348" fill="#CD662A" sketch:type="MSShapeGroup"></path>
            <path d="M565.455,287.984 L680.944,287.984 L680.944,280.78 L565.455,280.78 L565.455,287.984 Z" id="Fill-349" fill="#E17A3E" sketch:type="MSShapeGroup"></path>
            <path d="M603.271,272.838 L600.461,272.838 L600.461,280.78 L603.271,280.78 L603.271,272.838 Z" id="Fill-350" fill="#DAB439" sketch:type="MSShapeGroup"></path>
            <path d="M600.46,287.984 L603.27,287.984 L603.27,280.78 L600.46,280.78 L600.46,287.984 Z" id="Fill-351" fill="#EEC84D" sketch:type="MSShapeGroup"></path>
            <path d="M584.021,272.838 L581.211,272.838 L581.211,280.78 L584.021,280.78 L584.021,272.838 Z" id="Fill-352" fill="#DAB439" sketch:type="MSShapeGroup"></path>
            <path d="M581.211,287.984 L584.021,287.984 L584.021,280.78 L581.211,280.78 L581.211,287.984 Z" id="Fill-353" fill="#EEC84D" sketch:type="MSShapeGroup"></path>
            <path d="M600.46,272.838 L584.02,272.838 L584.02,280.78 L600.46,280.78 L600.46,272.838 Z" id="Fill-354" fill="#1F3A49" sketch:type="MSShapeGroup"></path>
            <path d="M584.021,287.984 L600.461,287.984 L600.461,280.78 L584.021,280.78 L584.021,287.984 Z" id="Fill-355" fill="#344E5D" sketch:type="MSShapeGroup"></path>
            <path d="M680.944,303.02 L565.455,303.02 L565.455,310.447 L680.944,310.447 L680.944,303.02 Z" id="Fill-356" fill="#2F9D88" sketch:type="MSShapeGroup"></path>
            <path d="M565.455,318.167 L680.944,318.167 L680.944,310.447 L565.455,310.447 L565.455,318.167 Z" id="Fill-357" fill="#43B19C" sketch:type="MSShapeGroup"></path>
            <path d="M603.271,303.02 L600.462,303.02 L600.462,310.447 L603.271,310.447 L603.271,303.02 Z" id="Fill-358" fill="#DAB439" sketch:type="MSShapeGroup"></path>
            <path d="M600.462,318.167 L603.271,318.167 L603.271,310.447 L600.462,310.447 L600.462,318.167 Z" id="Fill-359" fill="#EEC84D" sketch:type="MSShapeGroup"></path>
            <path d="M584.021,303.02 L581.212,303.02 L581.212,310.447 L584.021,310.447 L584.021,303.02 Z" id="Fill-360" fill="#DAB439" sketch:type="MSShapeGroup"></path>
            <path d="M581.213,318.167 L584.022,318.167 L584.022,310.447 L581.213,310.447 L581.213,318.167 Z" id="Fill-361" fill="#EEC84D" sketch:type="MSShapeGroup"></path>
            <path d="M600.462,303.02 L584.022,303.02 L584.022,310.447 L600.462,310.447 L600.462,303.02 Z" id="Fill-362" fill="#1F3A49" sketch:type="MSShapeGroup"></path>
            <path d="M584.021,318.167 L600.461,318.167 L600.461,310.447 L584.021,310.447 L584.021,318.167 Z" id="Fill-363" fill="#344E5D" sketch:type="MSShapeGroup"></path>
            <g id="Group-382" transform="translate(561.000000, 226.000000)" sketch:type="MSShapeGroup">
                <g id="Group-376">
                    <path d="M110.8262,4.6494 C109.9612,5.0594 118.0692,3.0674 120.5732,4.3194 C122.9302,5.4954 124.2502,11.1054 122.9562,13.2724 C121.6602,15.4394 117.0402,16.6644 117.0402,16.6644 L110.8262,4.6494 Z" id="Fill-364" fill="#243A47"></path>
                    <path d="M13.2842,4.6494 C14.1512,5.0594 6.0422,3.0674 3.5382,4.3194 C1.1842,5.4954 -0.1388,11.1054 1.1582,13.2724 C2.4522,15.4394 7.0732,16.8994 7.0732,16.8994 L13.2842,4.6494 Z" id="Fill-366" fill="#243A47"></path>
                    <path d="M48.5254,5.0557 C40.0544,0.9767 24.5904,-0.4533 13.8564,2.3717 C1.6984,5.5677 4.4214,26.3237 8.4934,34.4697 C12.5634,42.6137 20.4184,44.7927 29.7014,44.9037 C38.9804,45.0147 50.1274,41.0507 53.8594,31.0967 C55.3974,26.9967 57.7224,17.7717 61.7504,16.9197 L61.7504,8.5367 C60.1644,8.5737 55.3744,8.3527 48.5254,5.0557" id="Fill-368" fill="#E3E4E5"></path>
                    <path d="M110.2578,2.8574 C99.6508,-0.5166 84.0598,0.9764 75.5868,5.0554 C68.3488,8.5414 63.4018,8.5894 62.1168,8.5294 L62.1168,8.5064 C62.1168,8.5064 62.0958,8.5094 62.0568,8.5134 C62.0168,8.5094 61.9948,8.5064 61.9948,8.5064 L61.9948,8.5294 C61.9258,8.5324 61.8408,8.5354 61.7498,8.5374 L61.7498,16.9194 C61.8528,16.8974 61.9508,16.8574 62.0568,16.8464 C66.2758,17.2724 68.6758,26.8924 70.2538,31.0964 C73.9858,41.0504 85.1308,45.0154 94.4118,44.9034 C103.6928,44.7934 111.5468,42.6134 115.6188,34.4694 C119.6928,26.3234 122.2358,6.6704 110.2578,2.8574" id="Fill-370" fill="#F8F1E6"></path>
                    <path d="M47.2695,33.9224 C40.8375,41.4514 27.3595,44.6214 18.2515,39.0574 C9.1445,33.4944 4.9935,16.0644 15.9805,7.6604 C26.6585,-0.5106 50.4075,8.5074 52.4495,13.9984 C54.4865,19.4894 53.7035,26.3924 47.2695,33.9224" id="Fill-372" fill="#344E5D"></path>
                    <path d="M105.8604,39.0571 C96.7534,44.6211 83.2714,41.4521 76.8424,33.9221 C70.4094,26.3921 69.6254,19.4901 71.6654,13.9981 C73.7044,8.5081 97.4514,-0.5099 108.1294,7.6611 C119.1184,16.0641 114.9664,33.4951 105.8604,39.0571" id="Fill-374" fill="#344E5D"></path>
                </g>
                <g id="Group-381" transform="translate(9.000000, 4.000000)" fill="#F8F1E6">
                    <path d="M38.2695,29.9224 C31.8375,37.4514 18.3595,40.6214 9.2515,35.0574 C0.1445,29.4944 -4.0065,12.0644 6.9805,3.6604 C17.6585,-4.5106 41.4075,4.5074 43.4495,9.9984 C45.4865,15.4894 44.7035,22.3924 38.2695,29.9224" id="Fill-377"></path>
                    <path d="M96.8604,35.0571 C87.7534,40.6211 74.2714,37.4521 67.8424,29.9221 C61.4094,22.3921 60.6254,15.4901 62.6654,9.9981 C64.7044,4.5081 88.4514,-4.5099 99.1294,3.6611 C110.1184,12.0641 105.9664,29.4951 96.8604,35.0571" id="Fill-379"></path>
                </g>
            </g>
            <path d="M760.414,158.468 L771.787,158.468 L771.787,43.231 L760.414,43.231 L760.414,158.468 Z" id="Fill-383" fill="#DAB439" sketch:type="MSShapeGroup"></path>
            <path d="M783.796,43.23 L771.787,43.23 L771.787,158.467 L783.796,158.467 L783.796,43.23 Z" id="Fill-384" fill="#EEC84D" sketch:type="MSShapeGroup"></path>
            <path d="M760.414,109.865 L771.983,109.865 L771.983,66.392 L760.414,66.392 L760.414,109.865 Z" id="Fill-385" fill="#1F3A49" sketch:type="MSShapeGroup"></path>
            <path d="M783.796,66.392 L771.983,66.392 L771.983,109.865 L783.796,109.865 L783.796,66.392 Z" id="Fill-386" fill="#344E5D" sketch:type="MSShapeGroup"></path>
            <path d="M760.414,115.942 L771.983,115.942 L771.983,131.988 L760.414,131.988 L760.414,115.942 Z" id="Fill-387" fill="#1F3A49" sketch:type="MSShapeGroup"></path>
            <path d="M783.796,131.989 L771.983,131.989 L771.983,115.943 L783.796,115.943 L783.796,131.989 Z" id="Fill-388" fill="#344E5D" sketch:type="MSShapeGroup"></path>
            <path d="M788.766,158.088 L796.683,158.088 L796.683,42.85 L788.766,42.85 L788.766,158.088 Z" id="Fill-389" fill="#2F9D88" sketch:type="MSShapeGroup"></path>
            <path d="M804.238,42.85 L796.682,42.85 L796.682,158.088 L804.238,158.088 L804.238,42.85 Z" id="Fill-390" fill="#43B19C" sketch:type="MSShapeGroup"></path>
            <path d="M788.766,109.485 L796.683,109.485 L796.683,66.011 L788.766,66.011 L788.766,109.485 Z" id="Fill-391" fill="#1F3A49" sketch:type="MSShapeGroup"></path>
            <path d="M804.238,66.012 L796.682,66.012 L796.682,109.486 L804.238,109.486 L804.238,66.012 Z" id="Fill-392" fill="#344E5D" sketch:type="MSShapeGroup"></path>
            <path d="M788.766,116.081 L796.683,116.081 L796.683,132.129 L788.766,132.129 L788.766,116.081 Z" id="Fill-393" fill="#1F3A49" sketch:type="MSShapeGroup"></path>
            <path d="M804.238,132.129 L796.682,132.129 L796.682,116.081 L804.238,116.081 L804.238,132.129 Z" id="Fill-394" fill="#344E5D" sketch:type="MSShapeGroup"></path>
            <path d="M807.527,157.708 L815.248,157.708 L815.248,42.47 L807.527,42.47 L807.527,157.708 Z" id="Fill-395" fill="#CD662A" sketch:type="MSShapeGroup"></path>
            <path d="M823,42.47 L815.248,42.47 L815.248,157.708 L823,157.708 L823,42.47 Z" id="Fill-396" fill="#E17A3E" sketch:type="MSShapeGroup"></path>
            <path d="M807.527,109.107 L815.248,109.107 L815.248,65.633 L807.527,65.633 L807.527,109.107 Z" id="Fill-397" fill="#1F3A49" sketch:type="MSShapeGroup"></path>
            <path d="M823,65.632 L815.248,65.632 L815.248,109.106 L823,109.106 L823,65.632 Z" id="Fill-398" fill="#344E5D" sketch:type="MSShapeGroup"></path>
            <path d="M807.527,116.221 L815.248,116.221 L815.248,132.267 L807.527,132.267 L807.527,116.221 Z" id="Fill-399" fill="#1F3A49" sketch:type="MSShapeGroup"></path>
            <path d="M823,132.268 L815.248,132.268 L815.248,116.222 L823,116.222 L823,132.268 Z" id="Fill-400" fill="#344E5D" sketch:type="MSShapeGroup"></path>
            <path d="M741.983,158.468 L748.834,158.468 L748.834,31.679 L741.983,31.679 L741.983,158.468 Z" id="Fill-401" fill="#1F3A49" sketch:type="MSShapeGroup"></path>
            <path d="M756.609,31.679 L748.834,31.679 L748.834,158.468 L756.609,158.468 L756.609,31.679 Z" id="Fill-402" fill="#344E5D" sketch:type="MSShapeGroup"></path>
            <path d="M741.968,52.021 L748.834,52.021 L748.834,46.942 L741.968,46.942 L741.968,52.021 Z" id="Fill-403" fill="#2F9D88" sketch:type="MSShapeGroup"></path>
            <path d="M756.594,46.942 L748.834,46.942 L748.834,52.021 L756.594,52.021 L756.594,46.942 Z" id="Fill-404" fill="#43B19C" sketch:type="MSShapeGroup"></path>
            <path d="M741.968,68.225 L748.834,68.225 L748.834,63.145 L741.968,63.145 L741.968,68.225 Z" id="Fill-405" fill="#DAB439" sketch:type="MSShapeGroup"></path>
            <path d="M756.594,63.145 L748.834,63.145 L748.834,68.225 L756.594,68.225 L756.594,63.145 Z" id="Fill-406" fill="#EEC84D" sketch:type="MSShapeGroup"></path>
            <path d="M741.968,84.43 L748.834,84.43 L748.834,79.35 L741.968,79.35 L741.968,84.43 Z" id="Fill-407" fill="#CD662A" sketch:type="MSShapeGroup"></path>
            <path d="M756.594,79.351 L748.834,79.351 L748.834,84.431 L756.594,84.431 L756.594,79.351 Z" id="Fill-408" fill="#E17A3E" sketch:type="MSShapeGroup"></path>
            <path d="M741.968,100.634 L748.834,100.634 L748.834,95.554 L741.968,95.554 L741.968,100.634 Z" id="Fill-409" fill="#CA3535" sketch:type="MSShapeGroup"></path>
            <path d="M756.594,95.554 L748.834,95.554 L748.834,100.634 L756.594,100.634 L756.594,95.554 Z" id="Fill-410" fill="#DE4949" sketch:type="MSShapeGroup"></path>
            <path d="M679.312,158.468 L683.833,158.468 L683.833,75.114 L679.312,75.114 L679.312,158.468 Z" id="Fill-411" fill="#2F9D88" sketch:type="MSShapeGroup"></path>
            <path d="M688.711,75.114 L683.834,75.114 L683.834,158.468 L688.711,158.468 L688.711,75.114 Z" id="Fill-412" fill="#43B19C" sketch:type="MSShapeGroup"></path>
            <path d="M679.312,100.38 L683.833,100.38 L683.833,88.514 L679.312,88.514 L679.312,100.38 Z" id="Fill-413" fill="#1F3A49" sketch:type="MSShapeGroup"></path>
            <path d="M688.711,88.514 L683.834,88.514 L683.834,100.38 L688.711,100.38 L688.711,88.514 Z" id="Fill-414" fill="#344E5D" sketch:type="MSShapeGroup"></path>
            <path d="M688.728,158.468 L693.666,158.468 L693.666,75.114 L688.728,75.114 L688.728,158.468 Z" id="Fill-415" fill="#1F3A49" sketch:type="MSShapeGroup"></path>
            <path d="M698.128,75.114 L693.666,75.114 L693.666,158.468 L698.128,158.468 L698.128,75.114 Z" id="Fill-416" fill="#344E5D" sketch:type="MSShapeGroup"></path>
            <path d="M688.728,100.38 L693.666,100.38 L693.666,88.514 L688.728,88.514 L688.728,100.38 Z" id="Fill-417" fill="#DAB439" sketch:type="MSShapeGroup"></path>
            <path d="M698.128,88.514 L693.666,88.514 L693.666,100.38 L698.128,100.38 L698.128,88.514 Z" id="Fill-418" fill="#EEC84D" sketch:type="MSShapeGroup"></path>
            <path d="M698.031,158.468 L702.5,158.468 L702.5,75.114 L698.031,75.114 L698.031,158.468 Z" id="Fill-419" fill="#CA3535" sketch:type="MSShapeGroup"></path>
            <path d="M707.43,75.114 L702.5,75.114 L702.5,158.468 L707.43,158.468 L707.43,75.114 Z" id="Fill-420" fill="#DE4949" sketch:type="MSShapeGroup"></path>
            <path d="M707.43,88.514 L702.5,88.514 L702.5,100.38 L707.43,100.38 L707.43,88.514 Z" id="Fill-421" fill="#344E5D" sketch:type="MSShapeGroup"></path>
            <path d="M698.031,100.38 L702.5,100.38 L702.5,88.514 L698.031,88.514 L698.031,100.38 Z" id="Fill-422" fill="#1F3A49" sketch:type="MSShapeGroup"></path>
            <path d="M740.037,75.114 L735.167,75.114 L735.167,158.468 L740.037,158.468 L740.037,75.114 Z" id="Fill-423" fill="#EEC84D" sketch:type="MSShapeGroup"></path>
            <path d="M730.639,158.468 L735.167,158.468 L735.167,75.114 L730.639,75.114 L730.639,158.468 Z" id="Fill-424" fill="#DAB439" sketch:type="MSShapeGroup"></path>
            <path d="M730.639,100.38 L735.167,100.38 L735.167,88.514 L730.639,88.514 L730.639,100.38 Z" id="Fill-425" fill="#1F3A49" sketch:type="MSShapeGroup"></path>
            <path d="M740.037,88.514 L735.167,88.514 L735.167,100.38 L740.037,100.38 L740.037,88.514 Z" id="Fill-426" fill="#344E5D" sketch:type="MSShapeGroup"></path>
            <path d="M730.683,34.109 L719,34.109 L719,158.468 L730.683,158.468 L730.683,34.109 Z" id="Fill-427" fill="#43B19C" sketch:type="MSShapeGroup"></path>
            <path d="M707.355,158.468 L719,158.468 L719,34.109 L707.355,34.109 L707.355,158.468 Z" id="Fill-428" fill="#2F9D88" sketch:type="MSShapeGroup"></path>
            <path d="M730.6821,133.6234 L730.6821,127.3024 L730.6821,133.6234 Z" id="Fill-429" fill="#344E5D" sketch:type="MSShapeGroup"></path>
            <path d="M707.3559,133.6234 L707.3559,127.3024 L707.3559,133.6234 Z" id="Fill-430" fill="#344E5D" sketch:type="MSShapeGroup"></path>
            <path d="M720.46,158.468 L726.024,158.468 L726.024,34.05 L720.46,34.05 L720.46,158.468 Z" id="Fill-431" fill="#DE4949" sketch:type="MSShapeGroup"></path>
            <path d="M711.733,158.468 L717.298,158.468 L717.298,34.05 L711.733,34.05 L711.733,158.468 Z" id="Fill-432" fill="#DAB439" sketch:type="MSShapeGroup"></path>
            <path d="M632.155,158.468 L639.5,158.468 L639.5,61.811 L632.155,61.811 L632.155,158.468 Z" id="Fill-433" fill="#CA3535" sketch:type="MSShapeGroup"></path>
            <path d="M647.301,61.811 L639.5,61.811 L639.5,158.468 L647.301,158.468 L647.301,61.811 Z" id="Fill-434" fill="#DE4949" sketch:type="MSShapeGroup"></path>
            <path d="M632.155,129.17 L639.5,129.17 L639.5,126.819 L632.155,126.819 L632.155,129.17 Z" id="Fill-435" fill="#DAB439" sketch:type="MSShapeGroup"></path>
            <path d="M647.301,126.819 L639.5,126.819 L639.5,129.17 L647.301,129.17 L647.301,126.819 Z" id="Fill-436" fill="#EEC84D" sketch:type="MSShapeGroup"></path>
            <path d="M632.155,145.28 L639.5,145.28 L639.5,142.928 L632.155,142.928 L632.155,145.28 Z" id="Fill-437" fill="#DAB439" sketch:type="MSShapeGroup"></path>
            <path d="M647.301,142.929 L639.5,142.929 L639.5,145.281 L647.301,145.281 L647.301,142.929 Z" id="Fill-438" fill="#EEC84D" sketch:type="MSShapeGroup"></path>
            <path d="M632.155,142.929 L639.5,142.929 L639.5,129.171 L632.155,129.171 L632.155,142.929 Z" id="Fill-439" fill="#1F3A49" sketch:type="MSShapeGroup"></path>
            <path d="M647.301,129.17 L639.5,129.17 L639.5,142.928 L647.301,142.928 L647.301,129.17 Z" id="Fill-440" fill="#344E5D" sketch:type="MSShapeGroup"></path>
            <path d="M647.329,158.468 L654.666,158.468 L654.666,61.812 L647.329,61.812 L647.329,158.468 Z" id="Fill-441" fill="#CD662A" sketch:type="MSShapeGroup"></path>
            <path d="M662.475,61.812 L654.666,61.812 L654.666,158.468 L662.475,158.468 L662.475,61.812 Z" id="Fill-442" fill="#E17A3E" sketch:type="MSShapeGroup"></path>
            <path d="M647.329,93.46 L654.666,93.46 L654.666,91.108 L647.329,91.108 L647.329,93.46 Z" id="Fill-443" fill="#DAB439" sketch:type="MSShapeGroup"></path>
            <path d="M662.475,91.108 L654.666,91.108 L654.666,93.46 L662.475,93.46 L662.475,91.108 Z" id="Fill-444" fill="#EEC84D" sketch:type="MSShapeGroup"></path>
            <path d="M647.329,77.35 L654.666,77.35 L654.666,74.999 L647.329,74.999 L647.329,77.35 Z" id="Fill-445" fill="#DAB439" sketch:type="MSShapeGroup"></path>
            <path d="M662.475,74.999 L654.666,74.999 L654.666,77.35 L662.475,77.35 L662.475,74.999 Z" id="Fill-446" fill="#EEC84D" sketch:type="MSShapeGroup"></path>
            <path d="M647.329,91.108 L654.666,91.108 L654.666,77.349 L647.329,77.349 L647.329,91.108 Z" id="Fill-447" fill="#1F3A49" sketch:type="MSShapeGroup"></path>
            <path d="M662.475,77.35 L654.666,77.35 L654.666,91.109 L662.475,91.109 L662.475,77.35 Z" id="Fill-448" fill="#344E5D" sketch:type="MSShapeGroup"></path>
            <path d="M617.146,158.468 L625,158.468 L625,61.812 L617.146,61.812 L617.146,158.468 Z" id="Fill-449" fill="#2F9D88" sketch:type="MSShapeGroup"></path>
            <path d="M632.293,61.812 L625,61.812 L625,158.468 L632.293,158.468 L632.293,61.812 Z" id="Fill-450" fill="#43B19C" sketch:type="MSShapeGroup"></path>
            <path d="M617.146,93.461 L625,93.461 L625,91.11 L617.146,91.11 L617.146,93.461 Z" id="Fill-451" fill="#DAB439" sketch:type="MSShapeGroup"></path>
            <path d="M632.293,91.11 L625,91.11 L625,93.461 L632.293,93.461 L632.293,91.11 Z" id="Fill-452" fill="#EEC84D" sketch:type="MSShapeGroup"></path>
            <path d="M617.146,77.351 L625,77.351 L625,75 L617.146,75 L617.146,77.351 Z" id="Fill-453" fill="#DAB439" sketch:type="MSShapeGroup"></path>
            <path d="M632.293,75 L625,75 L625,77.351 L632.293,77.351 L632.293,75 Z" id="Fill-454" fill="#EEC84D" sketch:type="MSShapeGroup"></path>
            <path d="M617.146,91.11 L625,91.11 L625,77.35 L617.146,77.35 L617.146,91.11 Z" id="Fill-455" fill="#1F3A49" sketch:type="MSShapeGroup"></path>
            <path d="M632.293,77.351 L625,77.351 L625,91.111 L632.293,91.111 L632.293,77.351 Z" id="Fill-456" fill="#344E5D" sketch:type="MSShapeGroup"></path>
            <path d="M667.406,158.468 L672.166,158.468 L672.166,43.242 L667.406,43.242 L667.406,158.468 Z" id="Fill-457" fill="#CA3535" sketch:type="MSShapeGroup"></path>
            <path d="M676.806,43.242 L672.166,43.242 L672.166,158.468 L676.806,158.468 L676.806,43.242 Z" id="Fill-458" fill="#DE4949" sketch:type="MSShapeGroup"></path>
            <path d="M667.406,113.41 L672.166,113.41 L672.166,84.852 L667.406,84.852 L667.406,113.41 Z" id="Fill-459" fill="#DAB439" sketch:type="MSShapeGroup"></path>
            <path d="M676.806,84.852 L672.166,84.852 L672.166,113.41 L676.806,113.41 L676.806,84.852 Z" id="Fill-460" fill="#EEC84D" sketch:type="MSShapeGroup"></path>
        </g>
    </g>
</svg>